<svg width="274" height="65" viewBox="0 0 274 65" fill="none" xmlns="http://www.w3.org/2000/svg">
<path d="M0.738281 53.5881V9.79046H25.0551V14.6721H10.4559V29.2713H20.2191V34.1073H10.4559V48.7065H25.0551V53.5881H0.738281Z" fill="white"/>
<path d="M32.0856 53.5881V14.6721H22.368V9.79046H51.5664V14.6721H41.8488V53.5881H32.0856Z" fill="white"/>
<path d="M48.8564 53.5881V9.79046H58.574V29.2713H68.3373V9.79046H78.0549V53.5881H68.3373V34.1073H58.574V53.5881H48.8564Z" fill="white"/>
<path d="M80.1581 53.5881V9.79046H104.475V14.6721H89.8757V29.2713H99.6389V34.1073H89.8757V48.7065H104.475V53.5881H80.1581Z" fill="white"/>
<path d="M106.669 53.5881V9.79046H126.15C128.812 9.79046 131.093 10.7485 132.994 12.6647C134.91 14.5808 135.868 16.862 135.868 19.5081V22.1542C135.868 24.3289 135.123 26.4275 133.632 28.4501C132.142 30.4575 129.648 31.4612 126.15 31.4612H130.986C132.324 31.4612 133.473 31.9402 134.431 32.8983C135.389 33.8564 135.868 35.0045 135.868 36.3428V53.5881H126.15V38.9889C126.15 37.6507 125.664 36.5025 124.69 35.5444C123.732 34.5863 122.592 34.1073 121.269 34.1073H116.387V53.5881H106.669ZM116.387 29.2713H121.269C122.592 29.2713 123.732 28.7923 124.69 27.8342C125.664 26.8609 126.15 25.7127 126.15 24.3897V19.5081C126.15 18.185 125.664 17.0521 124.69 16.1092C123.732 15.1511 122.592 14.6721 121.269 14.6721H116.387V29.2713Z" fill="white"/>
<path d="M147.028 51.5337C142.336 39.0955 150.794 20.3876 165.919 9.75282C148.053 22.3258 137.373 42.5842 142.077 55.0224C146.769 67.4606 165.055 67.3595 182.92 54.8033C167.796 65.4381 151.732 63.9718 147.04 51.5337H147.028Z" fill="white"/>
<path d="M206.762 9.54985C202.071 -2.88834 183.785 -2.78721 165.919 9.76895C181.044 -0.865868 197.12 0.583568 201.811 13.0218C206.503 25.4599 198.046 44.1678 182.921 54.8026C200.787 42.2464 211.467 21.988 206.775 9.54985H206.762Z" fill="white"/>
<path d="M193.284 13.2589C182.038 26.8968 169.415 39.5381 155.768 50.7752C167.005 37.1285 179.646 24.5047 193.284 13.2589Z" fill="white"/>
<path d="M160.785 18.2757C171.532 25.7577 180.799 35.0001 188.269 45.7594C177.509 38.2894 168.267 29.0231 160.785 18.2757Z" fill="white"/>
<path d="M178.074 9.03581C177.725 23.9649 175.355 39.4478 170.979 54.9983C171.308 40.0724 173.719 24.5832 178.074 9.03581Z" fill="white"/>
<path d="M151.545 35.5642C167.093 31.2093 182.582 28.7984 197.508 28.4699C181.957 32.8455 166.474 35.215 151.545 35.5642Z" fill="white"/>
<path d="M212.762 53.5881V9.79046H232.242C234.904 9.79046 237.185 10.7485 239.086 12.6647C241.002 14.5808 241.96 16.862 241.96 19.5081V22.1542C241.96 24.3289 241.215 26.4275 239.724 28.4501C238.234 30.4575 235.74 31.4612 232.242 31.4612H237.078C238.417 31.4612 239.565 31.9402 240.523 32.8983C241.481 33.8564 241.96 35.0045 241.96 36.3428V53.5881H232.242V38.9889C232.242 37.6507 231.756 36.5025 230.782 35.5444C229.824 34.5863 228.684 34.1073 227.361 34.1073H222.479V53.5881H212.762ZM222.479 29.2713H227.361C228.684 29.2713 229.824 28.7923 230.782 27.8342C231.756 26.8609 232.242 25.7127 232.242 24.3897V19.5081C232.242 18.185 231.756 17.0521 230.782 16.1092C229.824 15.1511 228.684 14.6721 227.361 14.6721H222.479V29.2713Z" fill="white"/>
<path d="M244.063 53.5881V9.79046H263.544C266.205 9.79046 268.486 10.7485 270.387 12.6647C272.304 14.5808 273.262 16.862 273.262 19.5081V21.9717C273.262 24.8155 272.448 27.051 270.821 28.6782C269.209 30.3054 266.783 31.3091 263.544 31.6893C266.783 31.6893 269.209 32.6702 270.821 34.632C272.448 36.5785 273.262 38.8368 273.262 41.4069V43.8705C273.262 46.5014 272.296 48.7826 270.365 50.7139C268.448 52.6301 266.175 53.5881 263.544 53.5881H244.063ZM253.781 29.2713H258.662C259.985 29.2713 261.126 28.7923 262.084 27.8342C263.057 26.8609 263.544 25.7127 263.544 24.3897V19.5081C263.544 18.185 263.057 17.0521 262.084 16.1092C261.126 15.1511 259.985 14.6721 258.662 14.6721H253.781V29.2713ZM253.781 48.7065H258.662C259.985 48.7065 261.126 48.2275 262.084 47.2694C263.057 46.3113 263.544 45.1784 263.544 43.8705V38.9889C263.544 35.7345 261.917 34.1073 258.662 34.1073H253.781V48.7065Z" fill="white"/>
</svg>
